<?xml version="1.0" encoding="utf-8"?>
<!-- Generator: Adobe Illustrator 23.0.1, SVG Export Plug-In . SVG Version: 6.00 Build 0)  -->
<svg version="1.1" id="Calque_1" xmlns="http://www.w3.org/2000/svg" xmlns:xlink="http://www.w3.org/1999/xlink" x="0px" y="0px"
	 viewBox="0 0 30 30" style="enable-background:new 0 0 30 30;" xml:space="preserve">
<g>
	<path d="M12.47,7.92c-0.15,1.03,0.31,1.93,1.13,2.73c2.06,2,4.11,4.02,6.11,6.08c0.86,0.89,1.79,1.31,3.04,1.28
		c2.54-0.05,4.65,2.04,4.72,4.56c0.01,0.31-0.2,0.62-0.31,0.93c-0.32-0.12-0.69-0.18-0.96-0.37c-0.33-0.22-0.57-0.55-0.86-0.83
		c-0.11-0.11-0.21-0.22-0.33-0.31c-0.84-0.65-1.71-0.37-2.94,0.94c-0.62,0.66-0.63,1.46-0.01,2.15c0.44,0.48,0.94,0.9,1.36,1.4
		c0.15,0.18,0.25,0.53,0.18,0.72c-0.08,0.19-0.4,0.36-0.64,0.39c-2.86,0.31-5.41-2.17-5.18-5.07c0.09-1.14-0.24-2.03-1.05-2.83
		c-2.12-2.08-4.23-4.18-6.31-6.31c-0.75-0.77-1.58-1.11-2.66-1.09c-2.7,0.05-4.9-2.03-4.91-4.6c0-0.3,0.15-0.76,0.37-0.86
		c0.21-0.1,0.63,0.12,0.89,0.3c0.36,0.26,0.64,0.63,0.97,0.94C5.21,8.2,5.36,8.34,5.54,8.44c0.83,0.47,1.71,0.08,2.74-1.22
		C8.8,6.55,8.8,5.81,8.23,5.18c-0.39-0.43-0.84-0.79-1.2-1.24C6.83,3.7,6.57,3.24,6.67,3.08c0.16-0.25,0.58-0.44,0.91-0.46
		c2.49-0.11,4.72,1.92,4.89,4.41C12.48,7.28,12.47,7.53,12.47,7.92z"/>
	<path d="M24.5,8.86c0.53,1.48,0.99,2.79,1.49,4.08c0.06,0.15,0.32,0.28,0.5,0.3c0.42,0.06,0.85,0.03,1.27,0.06
		c0.72,0.04,1.1,0.46,1.15,1.14c0.04,0.6,0.02,1.2-0.03,1.8c-0.06,0.73-0.5,1.13-1.23,1.15c-0.82,0.02-1.59-0.07-2.39-0.41
		c-0.87-0.37-1.87-0.49-2.83-0.57c-1.06-0.09-1.28-0.22-1.29-1.25c-0.04-3.34-2.65-5.93-6.04-5.99c-0.88-0.01-1.07-0.17-1.02-1.05
		c0.07-1.33-0.25-2.54-0.73-3.78c-0.25-0.66-0.22-1.59,0.05-2.25c0.47-1.16,1.64-0.62,2.53-0.68c0.62-0.05,1.18,0.17,1.34,0.83
		c0.11,0.45,0.1,0.94,0.07,1.41c-0.04,0.51,0.11,0.71,0.62,0.89c1.01,0.34,2,0.77,2.94,1.27c0.44,0.23,0.67,0.2,1.01-0.13
		c1.55-1.51,1.7-1.5,3.17,0.01c1.19,1.22,1.19,1.55-0.05,2.75C24.83,8.63,24.58,8.8,24.5,8.86z"/>
	<path d="M12.92,26.2c-1.34-0.64-2.57-1.24-3.81-1.8c-0.15-0.07-0.43-0.03-0.57,0.07c-0.34,0.26-0.61,0.59-0.93,0.87
		c-0.54,0.48-1.15,0.49-1.67,0.01c-0.44-0.41-0.86-0.84-1.26-1.29c-0.49-0.56-0.46-1.11,0.04-1.67c0.18-0.2,0.38-0.4,0.59-0.57
		c0.21-0.18,0.43-0.34,0.52-0.41c-0.61-1.53-1.15-2.89-1.73-4.36c-0.34,0-0.84,0-1.33,0c-0.95-0.01-1.38-0.43-1.39-1.38
		c0-0.55-0.07-1.13,0.08-1.64c0.12-0.39,0.49-0.95,0.81-1c0.74-0.1,1.57-0.09,2.25,0.17c1.11,0.42,2.21,0.77,3.4,0.75
		c0.98-0.02,1.2,0.2,1.22,1.15c0.06,3.47,2.65,6.05,6.11,6.04c0.76,0,1.01,0.33,0.96,0.98c-0.11,1.36,0.23,2.6,0.72,3.86
		c0.24,0.62,0.23,1.5-0.03,2.11c-0.61,1.42-1.95,0.67-2.99,0.73c-0.68,0.03-1.01-0.5-1.02-1.31C12.92,27.03,12.92,26.55,12.92,26.2z
		"/>
</g>
</svg>
