<?xml version="1.0" encoding="utf-8"?>
<!-- Generator: Adobe Illustrator 23.0.1, SVG Export Plug-In . SVG Version: 6.00 Build 0)  -->
<svg version="1.1" id="Calque_1" xmlns="http://www.w3.org/2000/svg" xmlns:xlink="http://www.w3.org/1999/xlink" x="0px" y="0px"
	 viewBox="0 0 30 30" style="enable-background:new 0 0 30 30;" xml:space="preserve">
<style type="text/css">
	.st0{fill:#3266AA;}
</style>
<g>
	<path class="st0" d="M16.64,15.69c0.03,0.05,0.07,0.11,0.1,0.16c-0.46,0.44-0.94,0.85-1.39,1.31c-0.5,0.52-0.5,1.22-0.04,1.67
		c0.47,0.46,1.15,0.45,1.67-0.05c1.13-1.11,2.26-2.23,3.37-3.37c0.54-0.55,0.53-1.21-0.01-1.75c-1.1-1.12-2.21-2.23-3.33-3.33
		c-0.54-0.54-1.24-0.55-1.71-0.08c-0.47,0.48-0.44,1.17,0.09,1.71c0.43,0.44,0.88,0.86,1.32,1.29c-0.02,0.04-0.04,0.09-0.06,0.13
		c-0.2,0-0.39,0-0.59,0c-4.06,0-8.13,0-12.19,0c-0.26,0-0.53,0-0.79,0.06c-0.68,0.15-1.04,0.83-0.79,1.48
		c0.21,0.56,0.56,0.76,1.37,0.76c3.44,0,6.88,0,10.32,0C14.87,15.69,15.75,15.69,16.64,15.69z"/>
	<path class="st0" d="M27.72,15.39c-0.34,1.13-0.53,2.33-1.04,3.38c-3.11,6.41-12.16,7.07-16.21,1.21c-0.37-0.54-0.4-1.02-0.07-1.46
		c0.34-0.44,0.81-0.59,1.31-0.39c0.29,0.12,0.54,0.4,0.74,0.66c1.47,1.91,3.4,2.9,5.79,2.93c3.79,0.05,7-2.99,7.16-6.89
		c0.16-4.08-2.9-6.98-6.2-7.38c-2.86-0.35-5.13,0.69-6.84,2.98c-0.32,0.43-0.69,0.69-1.24,0.6c-0.52-0.09-0.88-0.42-0.92-0.94
		c-0.02-0.32,0.1-0.72,0.29-0.99c1.5-2.17,3.59-3.51,6.19-3.9c5.29-0.8,9.87,2.48,10.89,7.72c0.06,0.29,0.1,0.59,0.16,0.88
		C27.72,14.33,27.72,14.86,27.72,15.39z"/>
	<path class="st0" d="M16.64,15.69c-0.89,0-1.77,0-2.66,0c-3.44,0-6.88,0-10.32,0c-0.8,0-1.16-0.2-1.37-0.76
		c-0.24-0.66,0.11-1.34,0.79-1.48c0.26-0.05,0.53-0.06,0.79-0.06c4.06,0,8.13,0,12.19,0c0.2,0,0.39,0,0.59,0
		c0.02-0.04,0.04-0.09,0.06-0.13c-0.44-0.43-0.89-0.85-1.32-1.29c-0.53-0.54-0.56-1.23-0.09-1.71c0.47-0.48,1.16-0.46,1.71,0.08
		c1.12,1.1,2.23,2.21,3.33,3.33c0.54,0.55,0.54,1.21,0.01,1.75c-1.11,1.13-2.24,2.25-3.37,3.37c-0.52,0.51-1.2,0.51-1.67,0.05
		c-0.46-0.45-0.46-1.15,0.04-1.67c0.44-0.46,0.92-0.88,1.39-1.31C16.71,15.8,16.67,15.74,16.64,15.69z"/>
</g>
</svg>
