<?xml version="1.0" encoding="utf-8"?>
<!-- Generator: Adobe Illustrator 23.0.1, SVG Export Plug-In . SVG Version: 6.00 Build 0)  -->
<svg version="1.1" xmlns="http://www.w3.org/2000/svg" xmlns:xlink="http://www.w3.org/1999/xlink" x="0px" y="0px"
	 viewBox="0 0 30 30" style="enable-background:new 0 0 30 30;" xml:space="preserve">
<style type="text/css">
	.st0{fill:#0760ED;}
	.st1{fill:#FFFFFF;}
</style>
<g id="Calque_2">
	<rect x="0.27" y="0.26" class="st0" width="30" height="30"/>
</g>
<g id="Calque_1">
	<g>
		<path class="st1" d="M14.42,1.77c0.56,0,1.13,0,1.69,0c0.07,0.01,0.13,0.03,0.2,0.04c0.62,0.09,1.24,0.15,1.85,0.27
			c7.28,1.53,11.99,8.97,10.26,16.23c-1.75,7.34-8.96,11.8-16.3,10.09c-5.19-1.21-9.28-5.56-10.15-10.8
			c-0.08-0.49-0.14-0.99-0.21-1.48c0-0.56,0-1.13,0-1.69c0.02-0.08,0.03-0.15,0.05-0.23c0.11-0.69,0.17-1.4,0.33-2.08
			c1.2-5.19,5.56-9.27,10.8-10.14C13.43,1.9,13.93,1.84,14.42,1.77z M15.27,4.41C9.28,4.4,4.41,9.26,4.4,15.24
			c-0.01,6.01,4.85,10.89,10.85,10.9c6,0,10.87-4.86,10.87-10.85C26.13,9.28,21.27,4.42,15.27,4.41z"/>
		<path class="st1" d="M15.26,5.73c5.26,0,9.55,4.28,9.55,9.51c0,5.31-4.27,9.58-9.56,9.58c-5.27-0.01-9.53-4.28-9.53-9.55
			S10,5.73,15.26,5.73z M15.66,17.95c0.16,0.5,0.52,0.67,0.96,0.7c0.89,0.05,1.72-0.14,2.44-0.68c1.52-1.14,2.21-2.69,1.99-4.58
			c-0.21-1.82-1.16-3.15-2.88-3.85c-1.67-0.69-3.38-0.64-5.08-0.08c-1.16,0.38-2.11,1.07-2.81,2.08c-1.16,1.67-1.53,3.51-1.11,5.49
			c0.4,1.87,1.46,3.24,3.28,3.91c1.94,0.71,3.92,0.77,5.9,0.17c1.26-0.38,2.28-1.12,2.94-2.29c0.04-0.08,0.08-0.16,0.14-0.27
			c-0.45,0-0.85-0.01-1.25,0.01c-0.08,0-0.17,0.07-0.23,0.14c-0.44,0.5-0.97,0.89-1.6,1.13c-1.78,0.65-3.58,0.64-5.37,0.02
			c-1.31-0.45-2.14-1.4-2.57-2.71c-0.31-0.97-0.29-1.96-0.04-2.94c0.46-1.85,1.53-3.16,3.41-3.69c0.99-0.28,1.99-0.3,3-0.13
			c2.44,0.42,3.77,2.76,2.85,5.01c-0.33,0.81-0.85,1.47-1.66,1.86c-0.41,0.2-0.6,0.04-0.55-0.41c0-0.03,0.01-0.07,0.02-0.1
			c0.16-0.77,0.32-1.55,0.48-2.32c0.18-0.87,0.36-1.73,0.55-2.62c-0.52,0-1.01,0.01-1.5,0c-0.17,0-0.23,0.06-0.25,0.22
			c-0.02,0.15-0.07,0.29-0.12,0.48c-0.31-0.44-0.69-0.71-1.18-0.8c-1.02-0.18-1.91,0.1-2.62,0.84c-1.07,1.11-1.52,2.45-1.33,3.98
			c0.16,1.28,1.18,2.14,2.46,2.14C14.59,18.65,15.15,18.39,15.66,17.95z"/>
		<path class="st1" d="M13.09,15.99c0.04-0.79,0.17-1.45,0.46-2.07c0.19-0.4,0.46-0.73,0.85-0.94c0.78-0.43,1.64-0.07,1.79,0.79
			c0.2,1.18-0.1,2.27-0.85,3.2c-0.18,0.22-0.47,0.38-0.74,0.46c-0.62,0.2-1.19-0.12-1.38-0.75C13.14,16.42,13.12,16.15,13.09,15.99z
			"/>
	</g>
</g>
</svg>
